<svg xmlns="http://www.w3.org/2000/svg" viewBox="0 0 500 500" width="500" height="500">
  <defs>
    <filter id="glow" x="-50%" y="-50%" width="200%" height="200%">
      <feGaussianBlur stdDeviation="3.5" result="coloredBlur"/>
      <feMerge>
        <feMergeNode in="coloredBlur"/>
        <feMergeNode in="SourceGraphic"/>
      </feMerge>
    </filter>
    <radialGradient id="grad1" cx="50%" cy="50%" r="50%" fx="50%" fy="50%">
      <stop offset="0%" style="stop-color:hsl(263 88% 78% / 0.1);"/>
      <stop offset="100%" style="stop-color:hsl(263 88% 78% / 0);"/>
    </radialGradient>
  </defs>

  <!-- Background Glow -->
  <circle cx="250" cy="250" r="240" fill="url(#grad1)"/>

  <!-- Main Circles -->
  <circle cx="250" cy="250" r="240" fill="none" stroke="hsl(263 88% 78% / 0.2)" stroke-width="1"/>
  <circle cx="250" cy="250" r="180" fill="none" stroke="hsl(263 88% 78% / 0.3)" stroke-width="1"/>
  <circle cx="250" cy="250" r="80" fill="none" stroke="hsl(263 88% 78% / 0.2)" stroke-width="1"/>
  
  <!-- Zodiac Signs -->
  <g fill="hsl(0 0% 98% / 0.7)" font-family="sans-serif" font-size="20" text-anchor="middle" dominant-baseline="central">
    <text x="250" y="40">♈</text> <!-- Aries -->
    <text x="360" y="75">♉</text> <!-- Taurus -->
    <text x="425" y="140">♊</text> <!-- Gemini -->
    <text x="460" y="250">♋</text> <!-- Cancer -->
    <text x="425" y="360">♌</text> <!-- Leo -->
    <text x="360" y="425">♍</text> <!-- Virgo -->
    <text x="250" y="460">♎</text> <!-- Libra -->
    <text x="140" y="425">♏</text> <!-- Scorpio -->
    <text x="75" y="360">♐</text> <!-- Sagittarius -->
    <text x="40" y="250">♑</text> <!-- Capricorn -->
    <text x="75" y="140">♒</text> <!-- Aquarius -->
    <text x="140" y="75">♓</text> <!-- Pisces -->
  </g>

  <!-- House Lines -->
  <g stroke="hsl(263 88% 78% / 0.4)" stroke-width="1" stroke-dasharray="2 3">
    <line x1="10" y1="250" x2="490" y2="250"/> <!-- Asc/Desc -->
    <line x1="250" y1="10" x2="250" y2="490"/> <!-- MC/IC -->
    <line x1="68.6" y1="130.4" x2="431.4" y2="369.6"/>
    <line x1="130.4" y1="68.6" x2="369.6" y2="431.4"/>
    <line x1="130.4" y1="431.4" x2="369.6" y2="68.6"/>
    <line x1="68.6" y1="369.6" x2="431.4" y2="130.4"/>
  </g>
  
  <!-- House Numbers -->
  <g fill="hsl(0 0% 98% / 0.4)" font-family="sans-serif" font-size="12" text-anchor="middle" dominant-baseline="central">
    <text x="40" y="270">1</text>
    <text x="80" y="385">2</text>
    <text x="165" y="445">3</text>
    <text x="250" y="420">4</text>
    <text x="335" y="445">5</text>
    <text x="420" y="385">6</text>
    <text x="460" y="230">7</text>
    <text x="420" y="115">8</text>
    <text x="335" y="55">9</text>
    <text x="250" y="80">10</text>
    <text x="165" y="55">11</text>
    <text x="80" y="115">12</text>
  </g>

  <!-- Planets -->
  <g fill="hsl(0 0% 98%)" font-family="sans-serif" font-size="18" text-anchor="middle" dominant-baseline="central" filter="url(#glow)" style="--glow-color: hsl(330 100% 70% / 0.8);">
    <text x="390" y="320">☉</text> <!-- Sun in Leo -->
    <text x="100" y="340">☽</text> <!-- Moon in Sagittarius -->
    <text x="150" y="85">☿</text> <!-- Mercury in Pisces -->
    <text x="200" y="400">♀</text> <!-- Venus in Libra -->
    <text x="300" y="100">♂</text> <!-- Mars in Aries -->
    <text x="410" y="180">♃</text> <!-- Jupiter in Gemini -->
    <text x="400" y="390">♄</text> <!-- Saturn in Virgo -->
    <text x="80" y="200">♅</text> <!-- Uranus in Aquarius -->
    <text x="290" y="440">♆</text> <!-- Neptune in Scorpio -->
    <text x="440" y="290">♇</text> <!-- Pluto in Cancer -->
  </g>
  
  <!-- Aspect Lines -->
  <g stroke-width="1.5" fill="none">
    <!-- Trine (Blue) -->
    <path d="M 390 320 L 100 340 L 300 100 Z" stroke="hsl(197 90% 60% / 0.7)"/>
    <!-- Opposition (Red) -->
    <line x1="150" y1="85" x2="400" y2="390" stroke="hsl(350 80% 60% / 0.7)"/>
    <!-- Square (Orange) -->
    <line x1="200" y1="400" x2="440" y2="290" stroke="hsl(36 100% 51% / 0.7)"/>
  </g>
</svg>
